<?xml version="1.0" encoding="UTF-8"?>
<svg version="1.1" xmlns="http://www.w3.org/2000/svg" width="1080" height="1080">
<path d="M0 0 C356.4 0 712.8 0 1080 0 C1080 356.4 1080 712.8 1080 1080 C723.6 1080 367.2 1080 0 1080 C0 723.6 0 367.2 0 0 Z " fill="#FEFEFE" transform="translate(0,0)"/>
<path d="M0 0 C0.97437012 0.24878906 1.94874023 0.49757813 2.95263672 0.75390625 C43.1943664 11.2477365 79.89215362 31.2606921 110 60 C111.34671041 61.17526573 112.70018778 62.34285528 114.0625 63.5 C122.95386967 71.24766651 130.69139346 79.76235605 138 89 C138.63164063 89.7528125 139.26328125 90.505625 139.9140625 91.28125 C170.5499681 128.09476619 187.7577111 174.75693446 193 222 C193.09498779 222.78697266 193.18997559 223.57394531 193.2878418 224.38476562 C194.26992502 233.48453053 194.20118372 242.60862409 194.1875 251.75 C194.18559662 253.05272858 194.18559662 253.05272858 194.18365479 254.3817749 C194.08069087 291.36794639 187.12076731 325.15045943 173.734375 359.5859375 C173.43337891 360.36291992 173.13238281 361.13990234 172.82226562 361.94042969 C172.16118018 363.59628384 171.4412472 365.22858297 170.703125 366.8515625 C169.83225067 369.5125674 169.92126232 370.41903349 171 373 C173.3725235 375.03325152 173.3725235 375.03325152 176.40625 376.90625 C177.23443237 377.44844933 177.23443237 377.44844933 178.0793457 378.00160217 C179.26438811 378.77580297 180.45283346 379.54481511 181.64428711 380.30911255 C184.1347198 381.90732586 186.60788628 383.53135056 189.08215332 385.1544342 C190.31855168 385.96521306 191.5557756 386.77473437 192.79382324 387.58299255 C224.67095248 408.40745112 224.67095248 408.40745112 234 422 C234.52851562 422.76828125 235.05703125 423.5365625 235.6015625 424.328125 C240.11234734 431.93849943 240.5191567 440.4235855 238.55029297 448.94677734 C231.94189437 472.07908364 215.01299311 498.54216996 194.8125 512.0625 C186.86156513 516.43796313 179.07862812 518.20057425 170 517 C156.39235222 512.98199377 143.880811 504.51157453 132.25 496.625 C131.09010143 495.84727298 129.92977343 495.07018608 128.76904297 494.29370117 C123.35213806 490.66185883 117.96510335 486.99120009 112.6262207 483.2454834 C110.34251152 481.64371735 108.05222363 480.05147757 105.76208496 478.45892334 C104.15265809 477.3318685 102.55519662 476.18778888 100.95800781 475.04345703 C99.98444336 474.36524902 99.01087891 473.68704102 98.0078125 472.98828125 C97.15848145 472.38540283 96.30915039 471.78252441 95.43408203 471.16137695 C92.41815045 469.72238131 91.12244344 469.92389102 88 471 C85.68540453 472.5882218 83.50934481 474.20186961 81.3125 475.9375 C62.4146311 490.27115223 39.61764545 501.01436358 17 508 C15.93217285 508.32991943 15.93217285 508.32991943 14.84277344 508.66650391 C-3.19606092 514.13756115 -21.56886279 518.11272646 -40.46484375 518.203125 C-41.44733597 518.21022995 -42.42982819 518.2173349 -43.4420929 518.22465515 C-106.22321361 518.57522864 -162.1291635 504.71662052 -212 465 C-212.56960449 464.54753906 -213.13920898 464.09507812 -213.72607422 463.62890625 C-228.82161332 451.49267324 -243.3647775 437.50625661 -255 422 C-255.93373327 420.80508022 -256.86872803 419.61114559 -257.8046875 418.41796875 C-273.4155466 398.31242768 -286.07231911 375.83632446 -295 352 C-295.68569874 350.41588576 -296.37304728 348.83248401 -297.0625 347.25 C-312.18194576 309.07652331 -315.01151408 262.41436366 -309 222 C-308.87109375 221.06349609 -308.7421875 220.12699219 -308.609375 219.16210938 C-300.88720897 163.283658 -277.27643629 110.8053018 -238 70 C-237.44795898 69.42072754 -236.89591797 68.84145508 -236.32714844 68.24462891 C-228.64626715 60.21501543 -220.69192298 52.95999004 -211.77539062 46.32666016 C-209.98657115 44.9899653 -208.21935568 43.62807558 -206.453125 42.26171875 C-182.86223382 24.23062679 -154.47730769 10.35091083 -126 2 C-125.30487305 1.7927832 -124.60974609 1.58556641 -123.89355469 1.37207031 C-83.90913864 -10.28637654 -40.23502591 -10.34479549 0 0 Z " fill="#5E17EB" transform="translate(830,281)"/>
<path d="M0 0 C13.10905754 11.56681548 22.94206233 26.52030352 33.20166016 40.54443359 C36.12520674 44.5364281 39.06318655 48.51776156 42 52.5 C43.16673888 54.08328012 44.33340548 55.66661351 45.5 57.25 C46.0775 58.03375 46.655 58.8175 47.25 59.625 C66.5 85.75 66.5 85.75 68.25048828 88.12573242 C69.41543849 89.70668983 70.58047734 91.28758192 71.74560547 92.8684082 C74.6892698 96.86255828 77.63131346 100.8578843 80.5703125 104.85546875 C86.01636895 112.26019463 91.47457766 119.65424366 97 127 C101.32338364 132.74770957 105.61096121 138.52062204 109.875 144.3125 C110.46168457 145.10930176 111.04836914 145.90610352 111.65283203 146.72705078 C114.58525722 150.71210028 117.51352781 154.70015084 120.4375 158.69140625 C126.54759328 167.02169141 132.72308369 175.29450643 139 183.5 C146.45509945 193.24567249 153.74957386 203.10155667 161 213 C168.41407452 223.11265329 175.85718957 233.18688028 183.53466797 243.1015625 C186.6837311 247.18138838 189.81021686 251.27847203 192.9375 255.375 C193.56962402 256.2004834 194.20174805 257.0259668 194.85302734 257.87646484 C198.88303642 263.15811846 202.84033051 268.48923101 206.76391602 273.85009766 C207.26951302 274.54025467 207.77511002 275.23041168 208.29602814 275.94148254 C209.53102916 277.62740329 210.76556281 279.31366638 212 281 C212.00358253 279.10631731 212.00358253 279.10631731 212.00723743 277.1743784 C212.06470964 247.1451663 212.13751944 217.11603355 212.22898628 187.08690757 C212.24025322 183.38354093 212.25139187 179.68017391 212.26245117 175.97680664 C212.26465486 175.23959345 212.26685854 174.50238027 212.269129 173.74282729 C212.30441415 161.83651454 212.32932771 149.93020185 212.35034702 138.02385635 C212.37217931 125.78908845 212.40529954 113.55438786 212.44870156 101.31967729 C212.47509098 93.78207511 212.49287966 86.24455664 212.49934604 78.7069106 C212.50526864 72.9080022 212.52696501 67.10923174 212.55427551 61.31038857 C212.56301037 58.94547088 212.56678786 56.58052839 212.56500816 54.21559525 C212.54436864 14.10433733 212.54436864 14.10433733 225.9375 -0.18359375 C241.53563335 -13.92058619 265.5207182 -12.83778628 285 -12 C299.53991784 -10.86830171 315.49162583 -7.87241403 326.0625 2.9375 C336.92412315 16.33635271 336.30094845 35.32217198 336.26742554 51.64134216 C336.27116958 53.38752709 336.27577408 55.13371034 336.28115618 56.87989098 C336.29330775 61.64218611 336.29313506 66.40441058 336.29076743 71.16671765 C336.29035728 76.31678337 336.30141699 81.46682703 336.31088257 86.61688232 C336.32744886 96.69189875 336.33299007 106.76689176 336.33410732 116.84192067 C336.33505958 125.0336813 336.33917872 133.22543425 336.34550858 141.41719246 C336.36310664 164.66627185 336.37234933 187.91533283 336.37084763 211.16441893 C336.37076772 212.41606156 336.3706878 213.66770419 336.37060547 214.95727539 C336.37052371 216.21045376 336.37044195 217.46363213 336.37035771 218.7547856 C336.36954452 239.07131983 336.38869415 259.38777997 336.4168822 279.70429277 C336.44562845 300.58857287 336.45942164 321.47281685 336.45769465 342.35711724 C336.4570315 354.07280584 336.46249126 365.78841671 336.48405075 377.50408745 C336.50228511 387.47625474 336.50659107 397.44830902 336.4930319 407.42048579 C336.48651458 412.5039144 336.48634057 417.58712631 336.5037384 422.67053413 C336.51952801 427.33210798 336.51654571 431.99329434 336.49917014 436.65485907 C336.49611325 438.33302923 336.49968266 440.01122873 336.51089029 441.68936425 C336.60671816 457.06724549 334.69541146 472.97404067 324.1875 485.08984375 C319.40737683 489.64830798 314.23809134 492.01010439 308 494 C306.66582031 494.43119141 306.66582031 494.43119141 305.3046875 494.87109375 C294.45465248 498.10137483 283.464793 498.18662313 272.21240234 498.18530273 C270.13488256 498.1874896 268.05789535 498.20572368 265.98046875 498.22460938 C248.61080582 498.29739089 233.97589981 496.60540531 221.1484375 484.2109375 C215.09072548 477.74078551 210.05511217 470.38428973 204.84375 463.234375 C200.96966059 457.93236146 196.9942368 452.71180367 193 447.5 C187.34596304 440.11397377 181.78529021 432.66804463 176.2890625 425.1640625 C171.92722968 419.22328567 167.47945452 413.3524674 163 407.5 C157.34646605 400.11358208 151.78529806 392.66805534 146.2890625 385.1640625 C141.26691059 378.32393705 136.12388338 371.58009006 130.96533203 364.8425293 C126.53576655 359.04619071 122.18184443 353.20046074 117.875 347.3125 C113.3488463 341.12743929 108.72949347 335.03095953 104 329 C99.27050037 322.96903261 94.65137996 316.87240086 90.125 310.6875 C83.22213942 301.25688592 76.1522428 291.960059 69.04980469 282.67919922 C65.61181261 278.18556832 62.18025309 273.68704011 58.75 269.1875 C57.75129883 267.87773193 57.75129883 267.87773193 56.73242188 266.54150391 C52.1763131 260.56020285 47.65603103 254.55310536 43.15307617 248.53173828 C38.95068438 242.91850766 34.67937572 237.36103649 30.39501953 231.81005859 C27.58983293 228.17028725 24.79445848 224.52301051 22 220.875 C21.43547119 220.13967041 20.87094238 219.40434082 20.28930664 218.64672852 C19.49641235 217.61116821 19.49641235 217.61116821 18.6875 216.5546875 C18.21699219 215.94093262 17.74648437 215.32717773 17.26171875 214.69482422 C16.12381958 213.16632267 15.05701052 211.58551578 14 210 C13.99668985 211.23429811 13.99337971 212.46859623 13.98996925 213.74029732 C13.91083596 243.08463612 13.82157255 272.42892616 13.71994839 301.7731948 C13.70743053 305.39030018 13.6949976 309.00740586 13.68261719 312.62451172 C13.6789182 313.70459636 13.6789182 313.70459636 13.67514448 314.8065009 C13.63549405 326.44324462 13.60271269 338.07999797 13.57250018 349.71676959 C13.54131165 361.67013712 13.50267102 373.62346408 13.45720994 385.57678592 C13.43190718 392.28531087 13.41021358 398.99380566 13.39665604 405.70236588 C13.38377144 412.02407566 13.36164853 418.34568754 13.33261681 424.66734314 C13.32359089 426.98030917 13.31786253 429.29329094 13.31578636 431.60627365 C13.27222161 472.7892496 13.27222161 472.7892496 -0.04296875 486.39453125 C-10.68203676 495.12238944 -25.63104554 497.67232955 -39 498 C-39.88623047 498.03109863 -40.77246094 498.06219727 -41.68554688 498.09423828 C-59.10998426 498.66118776 -78.86036439 499.02025367 -94 489 C-95.051875 488.34 -96.10375 487.68 -97.1875 487 C-106.33029864 478.66239101 -109.66585203 464.83077686 -110.2774837 452.93086255 C-110.42045626 448.36903545 -110.40071007 443.80824503 -110.38095093 439.24476624 C-110.38441431 437.48620595 -110.38918341 435.72764785 -110.39513266 433.96909422 C-110.40757899 429.17255387 -110.40150146 424.37619412 -110.39217401 419.57965338 C-110.38535755 414.3927763 -110.39587761 409.20592925 -110.40411377 404.01905823 C-110.41742595 393.87183366 -110.4145845 383.72467581 -110.40587585 373.57744867 C-110.39908943 365.32704741 -110.39818673 357.07666478 -110.4014473 348.82626152 C-110.401907 347.65018533 -110.40236669 346.47410915 -110.40284032 345.26239429 C-110.40379954 342.87289973 -110.40477218 340.48340518 -110.4057581 338.09391063 C-110.41430472 315.70802233 -110.40448947 293.32217095 -110.388357 270.93628871 C-110.37495624 251.74730225 -110.37728134 232.55837024 -110.39111328 213.36938477 C-110.40718496 191.06290794 -110.41347898 168.75646344 -110.40427649 146.44998163 C-110.40332089 144.06917251 -110.40237777 141.68836338 -110.4014473 139.30755424 C-110.40098447 138.13628378 -110.40052164 136.96501332 -110.40004479 135.75824981 C-110.39745954 127.52265872 -110.40181591 119.28708822 -110.40888596 111.05150032 C-110.41731888 101.00797573 -110.41498325 90.96452143 -110.39904372 80.92100484 C-110.39118486 75.80116126 -110.38802857 70.68143469 -110.39799118 65.5615921 C-110.40698827 60.8667613 -110.40192334 56.17215501 -110.38605852 51.47734433 C-110.3827318 49.78706519 -110.38435672 48.09676674 -110.39168589 46.40650023 C-110.45698497 30.083637 -109.34195394 12.77537401 -97.75 0.0625 C-75.92493028 -19.23348439 -22.51494412 -17.98531039 0 0 Z " fill="#5E17EB" transform="translate(138,293)"/>
<path d="M0 0 C1.86785156 0.45826172 1.86785156 0.45826172 3.7734375 0.92578125 C25.03029337 6.54215901 43.21107885 19.07724224 59 34 C59.88429688 34.80824219 60.76859375 35.61648438 61.6796875 36.44921875 C89.81486218 63.10988711 99.24891226 99.52433955 100.38989258 137.08984375 C100.95494924 173.85619715 88.32424857 208.81755959 62.92602539 235.54663086 C39.22273075 259.62273395 7.63219248 274.7407385 -26.32446289 275.48168945 C-45.41792122 275.58015671 -63.77754401 272.69170676 -81 264 C-81.88945313 263.56171875 -82.77890625 263.1234375 -83.6953125 262.671875 C-116.13035714 245.85370371 -141.50422301 217.05882621 -152.78515625 182.21875 C-156.32067855 170.48637685 -158.14857273 158.07579363 -158.16796875 145.8359375 C-158.17129715 145.08140289 -158.17462555 144.32686829 -158.17805481 143.54946899 C-158.18308439 141.96120811 -158.18546437 140.37293681 -158.18530273 138.78466797 C-158.18747553 136.40183264 -158.20563606 134.01947167 -158.22460938 131.63671875 C-158.25956475 122.25336657 -157.67856577 113.26199159 -156 104 C-155.85925049 103.2069043 -155.71850098 102.41380859 -155.57348633 101.59667969 C-149.05526946 67.42505781 -127.55095012 37.49699982 -99 18 C-70.1257619 -1.48548472 -34.07224272 -9.25465573 0 0 Z " fill="#FEFEFE" transform="translate(801,401)"/>
</svg>
